<?xml version="1.0" encoding="utf-8"?>
<!-- Generator: Adobe Illustrator 15.0.0, SVG Export Plug-In . SVG Version: 6.00 Build 0)  -->
<!DOCTYPE svg PUBLIC "-//W3C//DTD SVG 1.1//EN" "http://www.w3.org/Graphics/SVG/1.1/DTD/svg11.dtd">
<svg version="1.1" xmlns="http://www.w3.org/2000/svg" xmlns:xlink="http://www.w3.org/1999/xlink" x="0px" y="0px" width="10px"
	 height="7.015px" viewBox="0 0 10 7.015" enable-background="new 0 0 10 7.015" xml:space="preserve">
<g id="svg2" inkscape:version="0.48.3.1 r9886" xmlns:cc="http://creativecommons.org/ns#" sodipodi:docname="hatch_grey.svg" xmlns:sodipodi="http://sodipodi.sourceforge.net/DTD/sodipodi-0.dtd" xmlns:inkscape="http://www.inkscape.org/namespaces/inkscape" xmlns:svg="http://www.w3.org/2000/svg" xmlns:rdf="http://www.w3.org/1999/02/22-rdf-syntax-ns#" xmlns:dc="http://purl.org/dc/elements/1.1/" display="none">
	
		<sodipodi:namedview  id="base" pagecolor="#ffffff" borderopacity="1.0" bordercolor="#666666" inkscape:cx="5.3649385" inkscape:pageopacity="0.0" fit-margin-right="0" inkscape:pageshadow="2" inkscape:zoom="90.509668" inkscape:cy="8.4846215" inkscape:document-units="px" inkscape:current-layer="layer1" showgrid="false" inkscape:window-width="1680" fit-margin-top="0" inkscape:window-height="1000" inkscape:window-x="0" inkscape:window-y="27" inkscape:window-maximized="1" showguides="true" inkscape:guide-bbox="true" fit-margin-left="0" fit-margin-bottom="0" inkscape:snap-global="false">
		<sodipodi:guide  id="guide3201" orientation="1,0" position="-777.011,-243.19382"></sodipodi:guide>
		<sodipodi:guide  id="guide3203" orientation="1,0" position="-366.8891,-277.53901"></sodipodi:guide>
	</sodipodi:namedview>
	<g display="inline">
		<path fill="#87B3E0" d="M4.999,2.5c-0.46,0-0.833-0.373-0.833-0.834c0-0.459,0.373-0.833,0.833-0.833
			c0.46,0,0.833,0.373,0.833,0.833C5.832,2.127,5.459,2.5,4.999,2.5z"/>
		<circle fill="#87B3E0" cx="4.999" cy="1.667" r="0.833"/>
	</g>
	<g display="inline">
		<path fill="#87B3E0" d="M8.332,2.5c-0.461,0-0.834-0.373-0.834-0.834c0-0.459,0.373-0.833,0.834-0.833
			c0.46,0,0.832,0.373,0.832,0.833C9.164,2.127,8.792,2.5,8.332,2.5z"/>
		<circle fill="#87B3E0" cx="8.332" cy="1.667" r="0.833"/>
		<path fill="#87B3E0" d="M9.998,0.833V0H9.164C9.164,0.46,9.538,0.833,9.998,0.833z"/>
	</g>
	
		<sodipodi:namedview  id="base" pagecolor="#ffffff" borderopacity="1.0" bordercolor="#666666" inkscape:cx="5.3649385" inkscape:pageopacity="0.0" fit-margin-right="0" inkscape:pageshadow="2" inkscape:zoom="90.509668" inkscape:cy="8.4846215" inkscape:document-units="px" inkscape:current-layer="layer1" showgrid="false" inkscape:window-width="1680" fit-margin-top="0" inkscape:window-height="1000" inkscape:window-x="0" inkscape:window-y="27" inkscape:window-maximized="1" showguides="true" inkscape:guide-bbox="true" fit-margin-left="0" fit-margin-bottom="0" inkscape:snap-global="false">
		<sodipodi:guide  id="guide3201" orientation="1,0" position="-777.011,-243.19382"></sodipodi:guide>
		<sodipodi:guide  id="guide3203" orientation="1,0" position="-366.8891,-277.53901"></sodipodi:guide>
	</sodipodi:namedview>
	<g display="inline">
		<path fill="#87B3E0" d="M1.666,2.5c-0.46,0-0.833-0.373-0.833-0.834c0-0.459,0.373-0.833,0.833-0.833
			c0.46,0,0.833,0.373,0.833,0.833C2.499,2.127,2.126,2.5,1.666,2.5z"/>
		<circle fill="#87B3E0" cx="1.666" cy="1.667" r="0.833"/>
		<path fill="#87B3E0" d="M0.833,0H0v0.833C0.459,0.833,0.833,0.46,0.833,0z"/>
	</g>
	<g display="inline">
		<path fill="#87B3E0" d="M4.999,5.834C4.539,5.834,4.166,5.46,4.166,5c0-0.459,0.373-0.833,0.833-0.833
			c0.46,0,0.833,0.374,0.833,0.833C5.832,5.46,5.459,5.834,4.999,5.834z"/>
		<circle fill="#87B3E0" cx="4.999" cy="5" r="0.834"/>
	</g>
	<g display="inline">
		<path fill="#87B3E0" d="M8.331,5.834C7.87,5.834,7.498,5.461,7.498,5c0-0.459,0.372-0.833,0.833-0.833
			c0.46,0,0.833,0.374,0.833,0.833C9.164,5.461,8.791,5.834,8.331,5.834z"/>
		<circle fill="#87B3E0" cx="8.331" cy="5" r="0.833"/>
	</g>
	<g display="inline">
		<path fill="#87B3E0" d="M1.666,5.834C1.206,5.834,0.833,5.46,0.833,5c0-0.459,0.373-0.833,0.833-0.833
			c0.46,0,0.833,0.374,0.833,0.833C2.499,5.46,2.126,5.834,1.666,5.834z"/>
		<circle fill="#87B3E0" cx="1.666" cy="5" r="0.834"/>
		<circle fill="#87B3E0" cx="3.333" cy="3.334" r="0.834"/>
		<path fill="#87B3E0" d="M2.5,0c0,0.461,0.373,0.834,0.833,0.834c0.46,0,0.833-0.374,0.833-0.834H2.5z"/>
		<circle fill="#87B3E0" cx="6.664" cy="3.334" r="0.834"/>
		<path fill="#87B3E0" d="M5.832-0.001c0,0.461,0.372,0.834,0.832,0.834c0.461,0,0.833-0.374,0.833-0.834H5.832z"/>
		<circle fill="#87B3E0" cx="3.333" cy="6.667" r="0.833"/>
		<path fill="#87B3E0" d="M0,4.167c0.46,0,0.833-0.374,0.833-0.834C0.833,2.874,0.46,2.5,0,2.5V4.167z"/>
		<path fill="#87B3E0" d="M0,7.5c0.46,0,0.833-0.373,0.833-0.834C0.833,6.207,0.46,5.833,0,5.833V7.5z"/>
		<circle fill="#87B3E0" cx="6.664" cy="6.667" r="0.833"/>
		<path fill="#87B3E0" d="M2.5,9.999c0-0.459,0.373-0.833,0.833-0.833c0.46,0,0.833,0.374,0.833,0.833H2.5z"/>
		<path fill="#87B3E0" d="M5.832,9.999c0-0.459,0.372-0.833,0.832-0.833c0.461,0,0.833,0.374,0.833,0.833H5.832z"/>
		<path fill="#87B3E0" d="M10,4.167c-0.46,0-0.832-0.374-0.832-0.834C9.168,2.874,9.54,2.5,10,2.5V4.167z"/>
		<path fill="#87B3E0" d="M10,7.5c-0.46,0-0.832-0.373-0.832-0.834c0-0.459,0.372-0.833,0.832-0.833V7.5z"/>
	</g>
	<g display="inline">
		<path fill="#87B3E0" d="M4.999,9.167c-0.46,0-0.833-0.373-0.833-0.835c0-0.459,0.373-0.832,0.833-0.832
			c0.46,0,0.833,0.373,0.833,0.832C5.832,8.794,5.459,9.167,4.999,9.167z"/>
		<circle fill="#87B3E0" cx="4.999" cy="8.333" r="0.833"/>
	</g>
	<g display="inline">
		<path fill="#87B3E0" d="M8.331,9.168c-0.461,0-0.833-0.374-0.833-0.835C7.498,7.874,7.87,7.5,8.331,7.5
			c0.46,0,0.833,0.374,0.833,0.833C9.164,8.794,8.791,9.168,8.331,9.168z"/>
		<circle fill="#87B3E0" cx="8.331" cy="8.334" r="0.834"/>
		<path fill="#87B3E0" d="M9.998,9.168C9.537,9.168,9.164,9.54,9.164,10h0.834V9.168z"/>
	</g>
	<g display="inline">
		<path fill="#87B3E0" d="M1.666,9.167c-0.46,0-0.833-0.373-0.833-0.835c0-0.459,0.373-0.832,0.833-0.832
			c0.46,0,0.833,0.373,0.833,0.832C2.499,8.794,2.126,9.167,1.666,9.167z"/>
		<circle fill="#87B3E0" cx="1.666" cy="8.333" r="0.833"/>
		<path fill="#87B3E0" d="M0,9.167V10h0.833C0.833,9.539,0.459,9.167,0,9.167z"/>
	</g>
</g>
<g id="Layer_2">
	<line fill="none" stroke="#87B3E0" stroke-width="0.7224" stroke-miterlimit="10" x1="1.25" y1="3.867" x2="8.75" y2="3.867"/>
	<line fill="none" stroke="#87B3E0" stroke-width="0.7224" stroke-miterlimit="10" x1="7.5" y1="0.409" x2="10" y2="0.409"/>
	<line fill="none" stroke="#87B3E0" stroke-width="0.7224" stroke-miterlimit="10" x1="0" y1="0.409" x2="2.5" y2="0.409"/>
</g>
</svg>
