<?xml version="1.0" encoding="UTF-8" standalone="no"?>
<!-- Generator: Adobe Illustrator 15.0.0, SVG Export Plug-In . SVG Version: 6.00 Build 0)  -->

<svg
   xmlns:dc="http://purl.org/dc/elements/1.1/"
   xmlns:cc="http://creativecommons.org/ns#"
   xmlns:rdf="http://www.w3.org/1999/02/22-rdf-syntax-ns#"
   xmlns:svg="http://www.w3.org/2000/svg"
   xmlns="http://www.w3.org/2000/svg"
   xmlns:sodipodi="http://sodipodi.sourceforge.net/DTD/sodipodi-0.dtd"
   xmlns:inkscape="http://www.inkscape.org/namespaces/inkscape"
   version="1.1"
   id="svg2"
   inkscape:version="0.48.3.1 r9886"
   sodipodi:docname="dot_blue.svg"
   x="0px"
   y="0px"
   width="10"
   height="10"
   viewBox="0 0 10 10"
   enable-background="new 0 0 10 10"
   xml:space="preserve"><metadata
   id="metadata3469"><rdf:RDF><cc:Work
       rdf:about=""><dc:format>image/svg+xml</dc:format><dc:type
         rdf:resource="http://purl.org/dc/dcmitype/StillImage" /></cc:Work></rdf:RDF></metadata><defs
   id="defs3467" />



<sodipodi:namedview
   id="base"
   pagecolor="#ffffff"
   borderopacity="1.0"
   bordercolor="#666666"
   inkscape:cx="-2.2617727"
   inkscape:pageopacity="0.0"
   fit-margin-right="0"
   inkscape:pageshadow="2"
   inkscape:zoom="45.254834"
   inkscape:cy="2.7929805"
   inkscape:document-units="px"
   inkscape:current-layer="svg2"
   showgrid="false"
   inkscape:window-width="1680"
   fit-margin-top="0"
   inkscape:window-height="1000"
   inkscape:window-x="0"
   inkscape:window-y="27"
   inkscape:window-maximized="1"
   showguides="true"
   inkscape:guide-bbox="true"
   fit-margin-left="0"
   fit-margin-bottom="0"
   inkscape:snap-global="false">
	<sodipodi:guide
   id="guide3201"
   orientation="1,0"
   position="-777.011,-243.19382" />
	<sodipodi:guide
   id="guide3203"
   orientation="1,0"
   position="-366.8891,-277.53901" />
</sodipodi:namedview>





<sodipodi:namedview
   id="namedview3407"
   pagecolor="#ffffff"
   borderopacity="1.0"
   bordercolor="#666666"
   inkscape:cx="5.3649385"
   inkscape:pageopacity="0.0"
   fit-margin-right="0"
   inkscape:pageshadow="2"
   inkscape:zoom="90.509668"
   inkscape:cy="8.4846215"
   inkscape:document-units="px"
   inkscape:current-layer="layer1"
   showgrid="false"
   inkscape:window-width="1680"
   fit-margin-top="0"
   inkscape:window-height="1000"
   inkscape:window-x="0"
   inkscape:window-y="27"
   inkscape:window-maximized="1"
   showguides="true"
   inkscape:guide-bbox="true"
   fit-margin-left="0"
   fit-margin-bottom="0"
   inkscape:snap-global="false">
	<sodipodi:guide
   id="guide3409"
   orientation="1,0"
   position="-777.011,-243.19382" />
	<sodipodi:guide
   id="guide3411"
   orientation="1,0"
   position="-366.8891,-277.53901" />
</sodipodi:namedview>


























<path
   id="path3465"
   style="fill:#87b3e0"
   d="M 0,9.1670833 V 10 H 0.833 C 0.833,9.5390461 0.459,9.1670833 0,9.1670833 z M 2.499,8.3331667 C 2.499,8.7931737 2.1260532,9.1660834 1.666,9.1660834 1.2059468,9.1660834 0.833,8.7931737 0.833,8.3331667 0.833,7.8731597 1.2059468,7.5002502 1.666,7.5002502 2.1260532,7.5002502 2.499,7.8731597 2.499,8.3331667 z M 1.666,9.1670833 C 1.206,9.1670833 0.833,8.7941206 0.833,8.3321668 0.833,7.8732127 1.206,7.50025 1.666,7.50025 2.126,7.50025 2.499,7.8732127 2.499,8.3321668 2.499,8.7941206 2.126,9.1670833 1.666,9.1670833 z M 9.998,9.1680832 C 9.537,9.1680832 9.164,9.540046 9.164,10 H 9.998 V 9.1680832 z M 9.1650003,8.3341666 C 9.1650003,8.7947255 8.7916058,9.1680832 8.3310003,9.1680832 7.8703949,9.1680832 7.4970003,8.7947255 7.4970003,8.3341666 7.4970003,7.8736068 7.8703949,7.5002496 8.3310003,7.5002496 8.7916058,7.5002496 9.1650003,7.8736068 9.1650003,8.3341666 z M 8.331,9.1680832 C 7.87,9.1680832 7.498,8.7941206 7.498,8.3331667 7.498,7.8742126 7.87,7.50025 8.331,7.50025 8.791,7.50025 9.164,7.8742126 9.164,8.3331667 9.164,8.7941206 8.791,9.1680832 8.331,9.1680832 z M 5.8320001,8.3331667 C 5.8320001,8.7931737 5.4590533,9.1660834 4.9990001,9.1660834 4.5389469,9.1660834 4.1660001,8.7931737 4.1660001,8.3331667 4.1660001,7.8731597 4.5389469,7.5002502 4.9990001,7.5002502 5.4590533,7.5002502 5.8320001,7.8731597 5.8320001,8.3331667 z M 4.999,9.1670833 C 4.539,9.1670833 4.166,8.7941206 4.166,8.3321668 4.166,7.8732127 4.539,7.50025 4.999,7.50025 5.459,7.50025 5.832,7.8732127 5.832,8.3321668 5.832,8.7941206 5.459,9.1670833 4.999,9.1670833 z M 10,7.50025 C 9.54,7.50025 9.168,7.1272873 9.168,6.6663334 9.168,6.2073793 9.54,5.8334167 10,5.8334167 V 7.50025 z M 10,4.1675832 C 9.54,4.1675832 9.168,3.7936206 9.168,3.3336666 9.168,2.8747125 9.54,2.5007499 10,2.5007499 V 4.1675832 z M 5.832,9.9990001 C 5.832,9.540046 6.204,9.1660834 6.664,9.1660834 7.125,9.1660834 7.497,9.540046 7.497,9.9990001 H 5.832 z M 2.5,9.9990001 C 2.5,9.540046 2.873,9.1660834 3.333,9.1660834 3.793,9.1660834 4.166,9.540046 4.166,9.9990001 H 2.5 z M 7.497,6.6673331 C 7.497,7.1273403 7.1240532,7.5002498 6.664,7.5002498 6.2039468,7.5002498 5.831,7.1273403 5.831,6.6673331 5.831,6.2073259 6.2039468,5.8344164 6.664,5.8344164 7.1240532,5.8344164 7.497,6.2073259 7.497,6.6673331 z M 0,7.50025 C 0.46,7.50025 0.833,7.1272873 0.833,6.6663334 0.833,6.2073793 0.46,5.8334167 0,5.8334167 V 7.50025 z M 0,4.1675832 C 0.46,4.1675832 0.833,3.7936206 0.833,3.3336666 0.833,2.8747125 0.46,2.5007499 0,2.5007499 V 4.1675832 z M 4.1659999,6.6673331 C 4.1659999,7.1273403 3.7930531,7.5002498 3.3329999,7.5002498 2.8729467,7.5002498 2.4999999,7.1273403 2.4999999,6.6673331 2.4999999,6.2073259 2.8729467,5.8344164 3.3329999,5.8344164 3.7930531,5.8344164 4.1659999,6.2073259 4.1659999,6.6673331 z M 5.832,0 C 5.832,0.4609539 6.204,0.8339166 6.664,0.8339166 7.125,0.8339166 7.497,0.459954 7.497,0 H 5.832 z M 7.498,3.3346666 C 7.498,3.7952261 7.1246055,4.1685832 6.664,4.1685832 6.2033946,4.1685832 5.83,3.7952261 5.83,3.3346666 5.83,2.8741072 6.2033946,2.50075 6.664,2.50075 7.1246055,2.50075 7.498,2.8741072 7.498,3.3346666 z M 2.5,9.999e-4 C 2.5,0.4619538 2.873,0.8349165 3.333,0.8349165 3.793,0.8349165 4.166,0.4609539 4.166,9.999e-4 H 2.5 z M 4.1669999,3.3346666 C 4.1669999,3.7952261 3.7936054,4.1685832 3.3329999,4.1685832 2.8723945,4.1685832 2.499,3.7952261 2.499,3.3346666 2.499,2.8741072 2.8723945,2.50075 3.3329999,2.50075 3.7936054,2.50075 4.1669999,2.8741072 4.1669999,3.3346666 z M 2.5,5.0005 C 2.5,5.4610594 2.1266055,5.8344166 1.666,5.8344166 1.2053945,5.8344166 0.832,5.4610594 0.832,5.0005 0.832,4.5399405 1.2053945,4.1665833 1.666,4.1665833 2.1266055,4.1665833 2.5,4.5399405 2.5,5.0005 z M 1.666,5.8344166 C 1.206,5.8344166 0.833,5.460454 0.833,5.0005 0.833,4.5415458 1.206,4.1675832 1.666,4.1675832 2.126,4.1675832 2.499,4.5415458 2.499,5.0005 2.499,5.460454 2.126,5.8344166 1.666,5.8344166 z M 9.1640003,5.0005 C 9.1640003,5.4605071 8.7910535,5.8334167 8.3310003,5.8334167 7.8709471,5.8334167 7.4980003,5.4605071 7.4980003,5.0005 7.4980003,4.5404928 7.8709471,4.1675832 8.3310003,4.1675832 8.7910535,4.1675832 9.1640003,4.5404928 9.1640003,5.0005 z M 8.331,5.8344166 C 7.87,5.8344166 7.498,5.4614539 7.498,5.0005 7.498,4.5415458 7.87,4.1675832 8.331,4.1675832 8.791,4.1675832 9.164,4.5415458 9.164,5.0005 9.164,5.4614539 8.791,5.8344166 8.331,5.8344166 z M 0.833,9.999e-4 H 0 V 0.8339166 C 0.459,0.8339166 0.833,0.4609539 0.833,9.999e-4 z M 2.499,1.6678333 C 2.499,2.1278405 2.1260532,2.50075 1.666,2.50075 1.2059468,2.50075 0.833,2.1278405 0.833,1.6678333 0.833,1.2078261 1.2059468,0.8349166 1.666,0.8349166 2.1260532,0.8349166 2.499,1.2078261 2.499,1.6678333 z M 1.666,2.5007499 C 1.206,2.5007499 0.833,2.1277872 0.833,1.6668333 0.833,1.2078792 1.206,0.8339166 1.666,0.8339166 2.126,0.8339166 2.499,1.2068793 2.499,1.6668333 2.499,2.1277872 2.126,2.5007499 1.666,2.5007499 z M 9.998,0.8339166 V 9.999e-4 H 9.164 C 9.164,0.4609539 9.538,0.8339166 9.998,0.8339166 z M 9.1649998,1.6678333 C 9.1649998,2.1278405 8.792053,2.50075 8.3319998,2.50075 7.8719466,2.50075 7.4989998,2.1278405 7.4989998,1.6678333 7.4989998,1.2078261 7.8719466,0.8349166 8.3319998,0.8349166 8.792053,0.8349166 9.1649998,1.2078261 9.1649998,1.6678333 z M 8.332,2.5007499 C 7.871,2.5007499 7.498,2.1277872 7.498,1.6668333 7.498,1.2078792 7.871,0.8339166 8.332,0.8339166 8.792,0.8339166 9.164,1.2068793 9.164,1.6668333 9.164,2.1277872 8.792,2.5007499 8.332,2.5007499 z M 5.8320001,1.6678333 C 5.8320001,2.1278405 5.4590533,2.50075 4.9990001,2.50075 4.5389469,2.50075 4.1660001,2.1278405 4.1660001,1.6678333 4.1660001,1.2078261 4.5389469,0.8349166 4.9990001,0.8349166 5.4590533,0.8349166 5.8320001,1.2078261 5.8320001,1.6678333 z M 4.999,2.5007499 C 4.539,2.5007499 4.166,2.1277872 4.166,1.6668333 4.166,1.2078792 4.539,0.8339166 4.999,0.8339166 5.459,0.8339166 5.832,1.2068793 5.832,1.6668333 5.832,2.1277872 5.459,2.5007499 4.999,2.5007499 z M 5.8330001,5.0005 C 5.8330001,5.4610594 5.4596055,5.8344166 4.9990001,5.8344166 4.5383946,5.8344166 4.1650001,5.4610594 4.1650001,5.0005 4.1650001,4.5399405 4.5383946,4.1665833 4.9990001,4.1665833 5.4596055,4.1665833 5.8330001,4.5399405 5.8330001,5.0005 z M 4.999,5.8344166 C 4.539,5.8344166 4.166,5.460454 4.166,5.0005 4.166,4.5415458 4.539,4.1675832 4.999,4.1675832 5.459,4.1675832 5.832,4.5415458 5.832,5.0005 5.832,5.460454 5.459,5.8344166 4.999,5.8344166 z"
   inkscape:connector-curvature="0" />
</svg>