<?xml version="1.0" encoding="utf-8"?>
<!-- Generator: Adobe Illustrator 15.0.0, SVG Export Plug-In . SVG Version: 6.00 Build 0)  -->
<!DOCTYPE svg PUBLIC "-//W3C//DTD SVG 1.1//EN" "http://www.w3.org/Graphics/SVG/1.1/DTD/svg11.dtd">
<svg version="1.1"
	 id="svg2" inkscape:version="0.48.3.1 r9886" xmlns:cc="http://creativecommons.org/ns#" sodipodi:docname="hatch_00.svg" xmlns:sodipodi="http://sodipodi.sourceforge.net/DTD/sodipodi-0.dtd" xmlns:inkscape="http://www.inkscape.org/namespaces/inkscape" xmlns:svg="http://www.w3.org/2000/svg" xmlns:rdf="http://www.w3.org/1999/02/22-rdf-syntax-ns#" xmlns:dc="http://purl.org/dc/elements/1.1/"
	 xmlns="http://www.w3.org/2000/svg" xmlns:xlink="http://www.w3.org/1999/xlink" x="0px" y="0px" width="10px" height="10px"
	 viewBox="0 0 10 10" enable-background="new 0 0 10 10" xml:space="preserve">
<sodipodi:namedview  id="base" pagecolor="#ffffff" borderopacity="1.0" bordercolor="#666666" inkscape:cx="6.2267249" inkscape:pageopacity="0.0" fit-margin-right="0" inkscape:pageshadow="2" inkscape:zoom="90.509668" inkscape:cy="1.8554954" inkscape:document-units="px" inkscape:current-layer="layer1" showgrid="false" inkscape:window-width="1680" fit-margin-top="0" inkscape:window-height="1000" inkscape:window-x="0" inkscape:window-y="27" inkscape:window-maximized="1" showguides="true" inkscape:guide-bbox="true" fit-margin-left="0" fit-margin-bottom="0" inkscape:snap-global="false">
	<sodipodi:guide  id="guide3201" orientation="1,0" position="-777.011,-243.19382"></sodipodi:guide>
	<sodipodi:guide  id="guide3203" orientation="1,0" position="-366.8891,-277.53901"></sodipodi:guide>
</sodipodi:namedview>
<path fill="#FF6161" d="M9.475,0L10,0.526V0H9.475z M10,8.018V7.509L2.49,0H1.982L10,8.018z M6.982,0L10,3.018V2.509L7.491,0H6.982z
	 M0,0v0.526L9.475,10H10L0,0z M0,2.491v0.526L6.982,10h0.525L0,2.491z M4.473,0L10,5.525V5L5,0H4.473z M5,10L0,5v0.525L4.473,10H5z
	 M2.508,10L0,7.491v0.526L1.982,10H2.508z"/>
</svg>
