<?xml version="1.0" encoding="UTF-8" standalone="no"?>
<!-- Generator: Adobe Illustrator 15.0.0, SVG Export Plug-In . SVG Version: 6.00 Build 0)  -->

<svg
   xmlns:dc="http://purl.org/dc/elements/1.1/"
   xmlns:cc="http://creativecommons.org/ns#"
   xmlns:rdf="http://www.w3.org/1999/02/22-rdf-syntax-ns#"
   xmlns:svg="http://www.w3.org/2000/svg"
   xmlns="http://www.w3.org/2000/svg"
   xmlns:sodipodi="http://sodipodi.sourceforge.net/DTD/sodipodi-0.dtd"
   xmlns:inkscape="http://www.inkscape.org/namespaces/inkscape"
   version="1.1"
   id="svg2"
   inkscape:version="0.48.3.1 r9886"
   sodipodi:docname="hatch_cult.svg"
   x="0px"
   y="0px"
   width="4"
   height="4"
   viewBox="0 0 4 4"
   enable-background="new 0 0 10 10"
   xml:space="preserve"><metadata
   id="metadata3527"><rdf:RDF><cc:Work
       rdf:about=""><dc:format>image/svg+xml</dc:format><dc:type
         rdf:resource="http://purl.org/dc/dcmitype/StillImage" /></cc:Work></rdf:RDF></metadata><defs
   id="defs3525" />
<sodipodi:namedview
   id="base"
   pagecolor="#ffffff"
   borderopacity="1.0"
   bordercolor="#666666"
   inkscape:cx="6.2267249"
   inkscape:pageopacity="0.0"
   fit-margin-right="0"
   inkscape:pageshadow="2"
   inkscape:zoom="90.509668"
   inkscape:cy="1.4135537"
   inkscape:document-units="px"
   inkscape:current-layer="svg2"
   showgrid="false"
   inkscape:window-width="1680"
   fit-margin-top="0"
   inkscape:window-height="1000"
   inkscape:window-x="0"
   inkscape:window-y="27"
   inkscape:window-maximized="1"
   showguides="true"
   inkscape:guide-bbox="true"
   fit-margin-left="0"
   fit-margin-bottom="0"
   inkscape:snap-global="false">
	<sodipodi:guide
   id="guide3201"
   orientation="1,0"
   position="-777.011,-243.19382" />
	<sodipodi:guide
   id="guide3203"
   orientation="1,0"
   position="-366.8891,-277.53901" />
</sodipodi:namedview>
<path
   d="M 3.79,0 4,0.2104 V 0 H 3.79 z M 4,3.2072 V 3.0036 L 0.996,0 H 0.7928 L 4,3.2072 z M 2.7928,0 4,1.2072 V 1.0036 L 2.9964,0 H 2.7928 z M 0,0 V 0.2104 L 3.79,4 H 4 L 0,0 z M 0,0.9964 V 1.2068 L 2.7928,4 H 3.0028 L 0,0.9964 z M 1.7892,0 4,2.21 V 2 L 2,0 H 1.7892 z M 2,4 0,2 V 2.21 L 1.7892,4 H 2 z M 1.0032,4 0,2.9964 V 3.2068 L 0.7928,4 H 1.0032 z"
   id="path3523"
   inkscape:connector-curvature="0"
   style="fill:#ff6161" />
</svg>