<?xml version="1.0" encoding="UTF-8" standalone="no"?>
<!-- Generator: Adobe Illustrator 15.0.0, SVG Export Plug-In . SVG Version: 6.00 Build 0)  -->

<svg
   xmlns:dc="http://purl.org/dc/elements/1.1/"
   xmlns:cc="http://creativecommons.org/ns#"
   xmlns:rdf="http://www.w3.org/1999/02/22-rdf-syntax-ns#"
   xmlns:svg="http://www.w3.org/2000/svg"
   xmlns="http://www.w3.org/2000/svg"
   xmlns:sodipodi="http://sodipodi.sourceforge.net/DTD/sodipodi-0.dtd"
   xmlns:inkscape="http://www.inkscape.org/namespaces/inkscape"
   version="1.1"
   id="svg2"
   inkscape:version="0.48.3.1 r9886"
   sodipodi:docname="hatch_plane.svg"
   x="0px"
   y="0px"
   width="10px"
   height="10px"
   viewBox="0 0 10 10"
   enable-background="new 0 0 10 10"
   xml:space="preserve"><metadata
   id="metadata3676"><rdf:RDF><cc:Work
       rdf:about=""><dc:format>image/svg+xml</dc:format><dc:type
         rdf:resource="http://purl.org/dc/dcmitype/StillImage" /></cc:Work></rdf:RDF></metadata><defs
   id="defs3674" />
<sodipodi:namedview
   id="base"
   pagecolor="#ffffff"
   borderopacity="1.0"
   bordercolor="#666666"
   inkscape:cx="6.2267249"
   inkscape:pageopacity="0.0"
   fit-margin-right="0"
   inkscape:pageshadow="2"
   inkscape:zoom="90.509668"
   inkscape:cy="4.9490876"
   inkscape:document-units="px"
   inkscape:current-layer="svg2"
   showgrid="false"
   inkscape:window-width="1680"
   fit-margin-top="0"
   inkscape:window-height="1000"
   inkscape:window-x="0"
   inkscape:window-y="27"
   inkscape:window-maximized="1"
   showguides="true"
   inkscape:guide-bbox="true"
   fit-margin-left="0"
   fit-margin-bottom="0"
   inkscape:snap-global="false">
	<sodipodi:guide
   id="guide3201"
   orientation="1,0"
   position="-777.011,-243.19382" />
	<sodipodi:guide
   id="guide3203"
   orientation="1,0"
   position="-366.8891,-277.53901" />
</sodipodi:namedview>
<path
   d="M 0,0 V 0.526 L 0.526,0 H 0 z M 8.018,0 H 7.51 L 0,7.509 V 8.018 L 8.018,0 z M 2.509,0 0,2.509 V 3.018 L 3.018,0 H 2.509 z M 0,10 H 0.526 L 10,0.526 V 0 L 0,10 z M 2.491,10 H 3.017 L 10,3.018 V 2.491 L 2.491,10 z M 5,0 0,5 V 5.525 L 5.527,0 H 5 z M 5.527,10 10,5.525 V 5 L 5,10 H 5.527 z M 8.018,10 10,8.018 V 7.491 L 7.492,10 H 8.018 z"
   id="path3672"
   inkscape:connector-curvature="0"
   style="fill:#ff6161" />
</svg>