<?xml version="1.0" encoding="utf-8"?>
<!-- Generator: Adobe Illustrator 15.0.0, SVG Export Plug-In . SVG Version: 6.00 Build 0)  -->
<!DOCTYPE svg PUBLIC "-//W3C//DTD SVG 1.1//EN" "http://www.w3.org/Graphics/SVG/1.1/DTD/svg11.dtd">
<svg version="1.1"
	 id="svg2" inkscape:version="0.48.3.1 r9886" xmlns:cc="http://creativecommons.org/ns#" sodipodi:docname="hatch_grey.svg" xmlns:sodipodi="http://sodipodi.sourceforge.net/DTD/sodipodi-0.dtd" xmlns:inkscape="http://www.inkscape.org/namespaces/inkscape" xmlns:svg="http://www.w3.org/2000/svg" xmlns:rdf="http://www.w3.org/1999/02/22-rdf-syntax-ns#" xmlns:dc="http://purl.org/dc/elements/1.1/"
	 xmlns="http://www.w3.org/2000/svg" xmlns:xlink="http://www.w3.org/1999/xlink" x="0px" y="0px" width="10px" height="10px"
	 viewBox="0 0 10 10" enable-background="new 0 0 10 10" xml:space="preserve">
<sodipodi:namedview  id="base" pagecolor="#ffffff" borderopacity="1.0" bordercolor="#666666" inkscape:cx="5.3649385" inkscape:pageopacity="0.0" fit-margin-right="0" inkscape:pageshadow="2" inkscape:zoom="90.509668" inkscape:cy="8.4846215" inkscape:document-units="px" inkscape:current-layer="layer1" showgrid="false" inkscape:window-width="1680" fit-margin-top="0" inkscape:window-height="1000" inkscape:window-x="0" inkscape:window-y="27" inkscape:window-maximized="1" showguides="true" inkscape:guide-bbox="true" fit-margin-left="0" fit-margin-bottom="0" inkscape:snap-global="false">
	<sodipodi:guide  id="guide3201" orientation="1,0" position="-777.011,-243.19382"></sodipodi:guide>
	<sodipodi:guide  id="guide3203" orientation="1,0" position="-366.8891,-277.53901"></sodipodi:guide>
</sodipodi:namedview>
<g id="layer1" transform="translate(-1854.8439,-343.58956)" inkscape:label="Layer 1" inkscape:groupmode="layer">
	<path id="path7396" inkscape:connector-curvature="0" fill="#BABABA" d="M1863.791,343.59l1.053,1.053v-1.053H1863.791z
		 M1861.3,343.59l3.544,3.544v-1.053l-2.491-2.491H1861.3z M1859.826,343.59h-1.018l6.035,6.035v-1.018L1859.826,343.59
		L1859.826,343.59z M1856.318,343.59l8.526,8.526v-1.018l-7.509-7.509H1856.318z M1854.844,344.642l8.947,8.947h1.053l-10-10
		V344.642z M1854.844,347.134l6.456,6.456h1.053l-7.509-7.509V347.134z M1854.844,349.625l3.965,3.965h1.053l-5.018-5.018V349.625z
		 M1854.844,351.063v1.053l1.474,1.474h1.053L1854.844,351.063L1854.844,351.063z"/>
</g>
</svg>
